<svg width="92" height="20" viewBox="0 0 92 20" fill="none" xmlns="http://www.w3.org/2000/svg">
<path d="M4.22 15.26C3.38 15.26 2.73333 15.0667 2.28 14.68C1.82667 14.28 1.6 13.6867 1.6 12.9V6.74C1.6 6.5 1.48 6.38 1.24 6.38H0.36C0.253333 6.38 0.166667 6.34667 0.1 6.28C0.0333333 6.21333 0 6.12667 0 6.02V4.34C0 4.1 0.12 3.98 0.36 3.98H1.24C1.48 3.98 1.6 3.86 1.6 3.62V0.359999C1.6 0.119999 1.72 0 1.96 0H4.28C4.52 0 4.64 0.119999 4.64 0.359999V3.62C4.64 3.86 4.76 3.98 5 3.98H6.34C6.58 3.98 6.7 4.1 6.7 4.34V6.02C6.7 6.26 6.58 6.38 6.34 6.38H5C4.76 6.38 4.64 6.5 4.64 6.74V11.92C4.64 12.1867 4.69333 12.4 4.8 12.56C4.90667 12.7067 5.12 12.78 5.44 12.78H6.32C6.56 12.78 6.68 12.9 6.68 13.14V14.9C6.68 15.14 6.56 15.26 6.32 15.26H4.22Z" fill="#859900"/>
<path d="M11.0925 15.26C10.2525 15.26 9.60583 15.0667 9.1525 14.68C8.69917 14.28 8.4725 13.6867 8.4725 12.9V0.359999C8.4725 0.119999 8.5925 0 8.8325 0H11.1525C11.3925 0 11.5125 0.119999 11.5125 0.359999V11.92C11.5125 12.4933 11.7725 12.78 12.2925 12.78H12.7125C12.9525 12.78 13.0725 12.9 13.0725 13.14V14.9C13.0725 15.14 12.9525 15.26 12.7125 15.26H11.0925Z" fill="#859900"/>
<path d="M15.7639 8.22C15.2972 8.22 14.8906 8.04667 14.5439 7.7C14.1972 7.35333 14.0239 6.94 14.0239 6.46C14.0239 5.99333 14.1906 5.58667 14.5239 5.24C14.8706 4.89333 15.2839 4.72 15.7639 4.72C16.2306 4.72 16.6372 4.89333 16.9839 5.24C17.3306 5.57333 17.5039 5.98 17.5039 6.46C17.5039 6.94 17.3306 7.35333 16.9839 7.7C16.6372 8.04667 16.2306 8.22 15.7639 8.22ZM14.1639 17.1C14.8039 17.0867 15.3172 16.9467 15.7039 16.68C16.1039 16.4267 16.3439 16.06 16.4239 15.58C16.4639 15.38 16.4772 15.1933 16.4639 15.02C16.2506 15.3267 15.9172 15.48 15.4639 15.48C15.0772 15.48 14.7372 15.3267 14.4439 15.02C14.1639 14.7 14.0239 14.2933 14.0239 13.8C14.0239 13.2667 14.1906 12.84 14.5239 12.52C14.8706 12.1867 15.3306 12.02 15.9039 12.02C16.5972 12.02 17.1306 12.2733 17.5039 12.78C17.8772 13.2867 18.0639 13.9533 18.0639 14.78C18.0639 15.8067 17.7506 16.6867 17.1239 17.42C16.4972 18.1667 15.5106 18.58 14.1639 18.66V17.1Z" fill="#859900"/>
<path d="M23.8533 15.5C22.8933 15.5 22.0399 15.2533 21.2933 14.76C20.5466 14.2533 19.9599 13.56 19.5333 12.68C19.1199 11.7867 18.9133 10.7667 18.9133 9.62C18.9133 8.47333 19.1199 7.46 19.5333 6.58C19.9599 5.68667 20.5466 4.99333 21.2933 4.5C22.0399 3.99333 22.8933 3.74 23.8533 3.74C24.4133 3.74 24.8999 3.82 25.3133 3.98C25.7399 4.14 26.1333 4.40667 26.4933 4.78C26.5999 4.88667 26.6799 4.94 26.7333 4.94C26.8399 4.94 26.8933 4.84667 26.8933 4.66V0.359999C26.8933 0.119999 27.0133 0 27.2533 0H29.5733C29.8133 0 29.9333 0.119999 29.9333 0.359999V14.9C29.9333 15.14 29.8133 15.26 29.5733 15.26H27.2533C27.0133 15.26 26.8933 15.14 26.8933 14.9V14.5C26.8933 14.3533 26.8466 14.28 26.7533 14.28C26.6866 14.28 26.5999 14.3333 26.4933 14.44C26.1333 14.8267 25.7399 15.1 25.3133 15.26C24.8999 15.42 24.4133 15.5 23.8533 15.5ZM24.6333 12.9C25.4333 12.9 26.0799 12.6 26.5733 12C27.0799 11.3867 27.3333 10.5933 27.3333 9.62C27.3333 8.64667 27.0799 7.86 26.5733 7.26C26.0799 6.64667 25.4333 6.34 24.6333 6.34C23.8333 6.34 23.1866 6.64667 22.6933 7.26C22.2133 7.86 21.9733 8.64667 21.9733 9.62C21.9733 10.5933 22.2133 11.3867 22.6933 12C23.1866 12.6 23.8333 12.9 24.6333 12.9Z" fill="#859900"/>
<path d="M32.623 15.26C32.383 15.26 32.263 15.14 32.263 14.9V4.34C32.263 4.1 32.383 3.98 32.623 3.98H34.943C35.183 3.98 35.303 4.1 35.303 4.34V4.62C35.303 4.80667 35.3563 4.9 35.463 4.9C35.5296 4.9 35.6096 4.85333 35.703 4.76C36.0496 4.38667 36.4363 4.12667 36.863 3.98C37.303 3.82 37.8163 3.74 38.403 3.74C38.643 3.74 38.763 3.86 38.763 4.1V6.28C38.763 6.52 38.643 6.64 38.403 6.64H38.123C37.2696 6.64 36.6163 6.85333 36.163 7.28C35.8563 7.57333 35.6363 7.96 35.503 8.44C35.3696 8.90667 35.303 9.52 35.303 10.28V14.9C35.303 15.14 35.183 15.26 34.943 15.26H32.623Z" fill="#859900"/>
<path d="M40.9103 15.26C40.777 15.26 40.7103 15.1933 40.7103 15.06V0.2C40.7103 0.0666666 40.777 0 40.9103 0H42.3503C42.4837 0 42.5503 0.0666666 42.5503 0.2V13.4C42.5503 13.5333 42.617 13.6 42.7503 13.6H49.1903C49.3236 13.6 49.3903 13.6667 49.3903 13.8V15.06C49.3903 15.1933 49.3236 15.26 49.1903 15.26H40.9103Z" fill="#859900"/>
<path d="M55.7633 15.46C54.7233 15.46 53.79 15.2133 52.9633 14.72C52.15 14.2267 51.5166 13.5467 51.0633 12.68C50.6099 11.8133 50.3833 10.84 50.3833 9.76C50.3833 8.73333 50.5966 7.78667 51.0233 6.92C51.4499 6.04 52.0633 5.33333 52.8633 4.8C53.6766 4.26667 54.6299 4 55.7233 4C56.6699 4 57.5499 4.21333 58.3633 4.64C59.1766 5.06667 59.83 5.69333 60.3233 6.52C60.8166 7.33333 61.0633 8.31333 61.0633 9.46V9.86C61.0633 9.99333 60.9966 10.06 60.8633 10.06H52.2633C52.1966 10.06 52.1433 10.08 52.1033 10.12C52.0766 10.16 52.07 10.2067 52.0833 10.26C52.1366 10.62 52.2033 10.92 52.2833 11.16C52.5633 12.0133 53.0099 12.6933 53.6233 13.2C54.25 13.7067 54.9566 13.96 55.7433 13.96C56.5033 13.96 57.1633 13.7667 57.7233 13.38C58.2833 12.98 58.7033 12.4733 58.9833 11.86C59.0233 11.7533 59.0966 11.7 59.2033 11.7H60.6233C60.6899 11.7 60.7433 11.72 60.7833 11.76C60.8233 11.7867 60.83 11.8267 60.8033 11.88C60.4166 12.9467 59.7966 13.8133 58.9433 14.48C58.09 15.1333 57.0299 15.46 55.7633 15.46ZM59.0433 8.56C59.1099 8.56 59.1566 8.54 59.1833 8.5C59.2233 8.46 59.2366 8.41333 59.2233 8.36C59.1699 7.98667 59.0966 7.69333 59.0033 7.48C58.7233 6.85333 58.2899 6.36667 57.7033 6.02C57.1299 5.67333 56.4833 5.5 55.7633 5.5C55.0299 5.5 54.3833 5.67333 53.8233 6.02C53.2766 6.36667 52.8499 6.85333 52.5433 7.48C52.4233 7.73333 52.3299 8.02 52.2633 8.34V8.38C52.2633 8.5 52.3233 8.56 52.4433 8.56H59.0433Z" fill="#859900"/>
<path d="M68.3014 19.66C67.0747 19.66 66.0081 19.4 65.1014 18.88C64.2081 18.3733 63.6414 17.54 63.4014 16.38V16.34C63.4014 16.22 63.4614 16.16 63.5814 16.16H64.9214C65.0414 16.16 65.1147 16.2133 65.1414 16.32C65.3414 16.9333 65.6947 17.3933 66.2014 17.7C66.7214 18.0067 67.4147 18.16 68.2814 18.16C70.4814 18.16 71.5814 17.1733 71.5814 15.2V13.92C71.5814 13.8133 71.5481 13.76 71.4814 13.76C71.4281 13.76 71.3814 13.7867 71.3414 13.84C70.8347 14.44 70.3214 14.86 69.8014 15.1C69.2814 15.34 68.6681 15.46 67.9614 15.46C66.9881 15.46 66.1281 15.22 65.3814 14.74C64.6347 14.26 64.0547 13.5933 63.6414 12.74C63.2414 11.8733 63.0414 10.8867 63.0414 9.78C63.0414 8.64667 63.2414 7.64667 63.6414 6.78C64.0547 5.9 64.6281 5.22 65.3614 4.74C66.1081 4.24667 66.9681 4 67.9414 4C68.6614 4 69.2814 4.12667 69.8014 4.38C70.3214 4.62 70.8347 5.03333 71.3414 5.62C71.3814 5.67333 71.4281 5.7 71.4814 5.7C71.5481 5.7 71.5814 5.64667 71.5814 5.54V4.4C71.5814 4.26667 71.6481 4.2 71.7814 4.2H73.0814C73.2147 4.2 73.2814 4.26667 73.2814 4.4V14.88C73.2814 16.5867 72.8414 17.8067 71.9614 18.54C71.0814 19.2867 69.8614 19.66 68.3014 19.66ZM68.1214 13.96C68.8014 13.96 69.4081 13.78 69.9414 13.42C70.4747 13.0467 70.8881 12.54 71.1814 11.9C71.4881 11.26 71.6414 10.5333 71.6414 9.72C71.6414 8.92 71.4881 8.2 71.1814 7.56C70.8881 6.92 70.4681 6.42 69.9214 6.06C69.3881 5.68667 68.7881 5.5 68.1214 5.5C67.4414 5.5 66.8414 5.68667 66.3214 6.06C65.8147 6.42 65.4214 6.92 65.1414 7.56C64.8747 8.2 64.7414 8.92 64.7414 9.72C64.7414 10.5333 64.8747 11.26 65.1414 11.9C65.4214 12.54 65.8147 13.0467 66.3214 13.42C66.8414 13.78 67.4414 13.96 68.1214 13.96Z" fill="#859900"/>
<path d="M79.2567 15.46C78.15 15.46 77.2701 15.18 76.6167 14.62C75.9767 14.06 75.6567 13.2933 75.6567 12.32C75.6567 11.36 76.0167 10.6 76.7367 10.04C77.3234 9.57333 78.1701 9.22667 79.2767 9L83.0367 8.28C83.1567 8.25333 83.2167 8.18 83.2167 8.06C83.1767 7.27333 82.9501 6.67333 82.5367 6.26C82.0301 5.75333 81.3501 5.5 80.4967 5.5C79.8434 5.5 79.2701 5.66667 78.7767 6C78.2967 6.33333 77.9767 6.78 77.8167 7.34C77.7767 7.46 77.7034 7.52 77.5967 7.52H76.2967C76.15 7.52 76.09 7.44667 76.1167 7.3C76.3434 6.26 76.8634 5.45333 77.6767 4.88C78.4901 4.29333 79.4367 4 80.5167 4C81.1701 4 81.7767 4.1 82.3367 4.3C82.8967 4.48667 83.37 4.76667 83.7567 5.14C84.2634 5.62 84.5834 6.17333 84.7167 6.8C84.8501 7.42667 84.9167 8.07333 84.9167 8.74V15.06C84.9167 15.1933 84.8501 15.26 84.7167 15.26H83.4167C83.2834 15.26 83.2167 15.1933 83.2167 15.06V13.92C83.2167 13.8133 83.1834 13.76 83.1167 13.76C83.0634 13.76 83.0167 13.7867 82.9767 13.84C82.6434 14.2533 82.2767 14.58 81.8767 14.82C81.1967 15.2467 80.3234 15.46 79.2567 15.46ZM79.4567 13.96C80.1367 13.96 80.7234 13.8333 81.2167 13.58C81.9367 13.2067 82.4434 12.72 82.7367 12.12C83.0434 11.52 83.2101 10.76 83.2367 9.84C83.2367 9.77333 83.2167 9.72667 83.1767 9.7C83.1367 9.66 83.0834 9.64667 83.0167 9.66L79.6367 10.34C78.8101 10.5 78.2034 10.76 77.8167 11.12C77.5101 11.4267 77.3567 11.8133 77.3567 12.28C77.3567 12.7867 77.5434 13.1933 77.9167 13.5C78.3034 13.8067 78.8167 13.96 79.4567 13.96Z" fill="#859900"/>
<path d="M90.2202 15.26C89.3268 15.26 88.6668 15.06 88.2402 14.66C87.8135 14.26 87.6002 13.5333 87.6002 12.48V0.2C87.6002 0.0666666 87.6668 0 87.8002 0H89.1002C89.2335 0 89.3002 0.0666666 89.3002 0.2V12.22C89.3002 12.6067 89.3268 12.9067 89.3802 13.12C89.4335 13.32 89.5535 13.48 89.7402 13.6C89.9268 13.7067 90.2202 13.76 90.6202 13.76H90.9602C91.0935 13.76 91.1602 13.8267 91.1602 13.96V15.06C91.1602 15.1933 91.0935 15.26 90.9602 15.26H90.2202Z" fill="#859900"/>
</svg>
